Coordinates
version=1
nRows=11
nColumns=42
inDegrees=yes

Units are S.I. units (second, meters, Newtons, ...)
If the header above contains a line with 'inDegrees', this indicates whether rotational values are in degrees (yes) or radians (no).

endheader
time	pelvis_tilt	pelvis_list	pelvis_rotation	pelvis_tx	pelvis_ty	pelvis_tz	hip_flexion_r	hip_adduction_r	hip_rotation_r	knee_angle_r	knee_adduction_r	knee_angle_r_beta	ankle_angle_r	subtalar_angle_r	mtp_angle_r	hip_flexion_l	hip_adduction_l	hip_rotation_l	knee_angle_l	knee_adduction_l	knee_angle_l_beta	ankle_angle_l	subtalar_angle_l	mtp_angle_l	lumbar_extension	lumbar_bending	lumbar_rotation	arm_flex_r	arm_add_r	arm_rot_r	elbow_flex_r	pro_sup_r	wrist_flex_r	wrist_dev_r	arm_flex_l	arm_add_l	arm_rot_l	elbow_flex_l	pro_sup_l	wrist_flex_l	wrist_dev_l
      0.98000000	     -0.25336364	      2.23419134	      0.88385088	     -0.95195490	      0.89035801	     -0.22329149	     -2.07253704	    -12.35270796	     -1.77045639	     54.05724566	     11.48247324	      0.94347692	     -5.49482895	     -2.77662925	     -7.60388521	     13.93686822	     -3.72987302	     -2.21514724	     18.08573219	     17.37228421	      0.31565557	      6.25671385	     -2.83816903	     -7.60388521	    -13.69942917	     -1.66668196	      1.84090601	     -1.23818403	    -13.86762650	     -3.59758432	     17.89440177	     90.00000001	      0.00000000	      0.00000000	     -9.38209112	     -8.35263276	      0.26693458	     19.60082935	     90.00000001	      0.00000000	      0.00000000
      0.99000000	     -0.06567325	      1.93258408	      0.96112134	     -0.94119781	      0.89239285	     -0.22408619	     -0.55439969	    -11.87864794	     -1.64102182	     55.62436197	     10.97246104	      0.97082826	     -3.79513247	     -3.60940284	     -7.60223789	     12.71159495	     -4.00649948	     -2.16447939	     17.62534846	     17.40984206	      0.30762036	      6.73642469	     -2.31870907	     -7.60223789	    -13.94356113	     -1.26740628	      1.65001793	     -1.25274496	    -13.88886400	     -3.59703132	     17.88187690	     90.00000001	      0.00000000	      0.00000000	     -9.02862111	     -8.60206436	      0.21823670	     19.87558485	     90.00000001	      0.00000000	      0.00000000
      1.00000000	     -0.15756269	      1.64659636	      0.93209529	     -0.93038806	      0.89400621	     -0.22478937	      1.30926896	    -11.43916833	     -1.61595489	     56.96442848	     10.39220671	      0.99421683	     -1.97826755	     -4.43083367	     -7.60000275	     11.60861970	     -4.33344085	     -2.17791853	     16.78636607	     17.57449863	      0.29297736	      7.30900965	     -1.67440126	     -7.60000275	    -13.82247142	     -0.88714202	      1.55916557	     -1.31775262	    -13.90261684	     -3.64218438	     17.77128483	     90.00000001	      0.00000000	      0.00000000	     -8.74201700	     -8.81621880	      0.13370173	     20.12353195	     90.00000001	      0.00000000	      0.00000000
      1.01000000	     -0.09333073	      1.33679484	      1.05307354	     -0.91973244	      0.89573978	     -0.22562785	      2.88962752	    -10.98737496	     -1.77911139	     57.92513465	      9.92368360	      1.01098432	     -0.12355059	     -5.01970598	     -7.59830152	     10.46293868	     -4.62092183	     -2.13794512	     16.17545111	     17.60738395	      0.28231488	      7.73715161	     -1.13774132	     -7.59830152	    -13.90969991	     -0.44733076	      1.33102207	     -1.35215249	    -13.91803717	     -3.69346662	     17.72298349	     90.00000001	      0.00000000	      0.00000000	     -8.39960304	     -9.04985299	      0.07577340	     20.37713609	     90.00000001	      0.00000000	      0.00000000
      1.02000000	     -0.04937138	      0.99829957	      1.24972317	     -0.90899866	      0.89734933	     -0.22647891	      4.39211450	    -10.52629641	     -2.10688134	     58.52732882	      9.51265456	      1.02149459	      1.70954567	     -5.43351757	     -7.59675691	      9.30615313	     -4.94058419	     -2.06922733	     15.47731586	     17.63320628	      0.27013012	      8.17534050	     -0.55263938	     -7.59675691	    -13.94639664	      0.03974703	      1.02200908	     -1.39600548	    -13.90329170	     -3.76453856	     17.66786434	     90.00000001	      0.00000000	      0.00000000	     -8.09463431	     -9.28135929	      0.02692726	     20.62859504	     90.00000001	      0.00000000	      0.00000000
      1.03000000	      0.01635234	      0.64374928	      1.55494011	     -0.89795694	      0.89883235	     -0.22748517	      5.71540056	    -10.06742352	     -2.64633321	     58.71222776	      9.14191555	      1.02472169	      3.53166835	     -5.62251630	     -7.59506668	      8.07348447	     -5.29936080	     -1.86962649	     14.66740079	     17.74743976	      0.25599444	      8.67350218	      0.12618334	     -7.59506668	    -13.93303708	      0.57837878	      0.60978810	     -1.49064094	    -13.91860964	     -3.89820382	     17.56667019	     90.00000001	      0.00000000	      0.00000000	     -7.84657970	     -9.52273763	     -0.01774026	     20.87462865	     90.00000001	      0.00000000	      0.00000000
      1.04000000	      0.13236327	      0.26293559	      2.02150977	     -0.88687244	      0.90023817	     -0.22865514	      6.83633152	     -9.63597517	     -3.34724302	     58.51258095	      8.90947504	      1.02123719	      5.23851707	     -5.66534846	     -7.59347382	      6.83518754	     -5.64761914	     -1.63313227	     13.90286398	     17.77181656	      0.24265075	      9.16254932	      0.78447304	     -7.59347382	    -13.96538329	      1.18650352	      0.03996692	     -1.58189206	    -13.90103189	     -4.05509537	     17.49875697	     90.00000001	      0.00000000	      0.00000000	     -7.60286911	     -9.76877223	     -0.03428004	     21.12111629	     90.00000001	      0.00000000	      0.00000000
      1.05000000	      0.35679746	     -0.15527547	      2.66318762	     -0.87552172	      0.90161308	     -0.22990451	      7.65235058	     -9.18647121	     -4.28338193	     57.89265504	      8.72928771	      1.01041744	      6.93778417	     -5.53577554	     -7.59173394	      5.46368534	     -6.07817278	     -1.14760037	     13.04316852	     17.86720840	      0.22764624	      9.74056180	      1.56446327	     -7.59173394	    -14.06556263	      1.85534329	     -0.67423624	     -1.71000795	    -13.85519719	     -4.27948421	     17.38539955	     90.00000001	      0.00000000	      0.00000000	     -7.38363999	    -10.04948434	     -0.02644361	     21.37027187	     90.00000001	      0.00000000	      0.00000000
      1.06000000	      0.95663915	     -0.71506768	      3.57444058	     -0.86372142	      0.90327439	     -0.23137088	      7.80138165	     -8.63473461	     -5.73672743	     56.80832372	      8.53971945	      0.99149229	      8.24200773	     -4.88856364	     -7.58898532	      3.64191065	     -6.76304166	     -0.40915396	     12.01790203	     18.09635714	      0.20975196	     10.35498797	      2.35934990	     -7.58898532	    -14.51121786	      2.75966768	     -1.62876773	     -1.81182648	    -13.80238370	     -4.70273414	     17.29554099	     90.00000001	      0.00000000	      0.00000000	     -7.20439212	    -10.32170626	      0.05006940	     21.67926793	     90.00000001	      0.00000000	      0.00000000
      1.07000000	      1.08996221	     -1.04125498	      4.32371307	     -0.85233173	      0.90408967	     -0.23294924	      8.59176326	     -8.42971557	     -6.70588731	     55.72240443	      8.62539723	      0.97253942	      9.52218787	     -4.85990129	     -7.58732397	      2.51579402	     -7.04258888	     -0.12381672	     11.44668818	     17.95356110	      0.19978240	     10.76070701	      2.83544140	     -7.58732397	    -14.44201781	      3.38278570	     -2.43369933	     -2.03971526	    -13.77469407	     -4.88888553	     17.27656920	     90.00000001	      0.00000000	      0.00000000	     -7.02702461	    -10.57458265	      0.11890562	     21.89425511	     90.00000001	      0.00000000	      0.00000000
      1.08000000	      1.75084279	     -1.62307518	      5.38232221	     -0.84041579	      0.90543684	     -0.23465903	      8.47435580	     -7.85889402	     -8.28378244	     54.00057584	      8.52848062	      0.94248785	     10.45667745	     -4.45349887	     -7.58398173	      0.67213036	     -7.83788779	      0.74870129	     10.37148515	     18.17284375	      0.18101656	     11.31741155	      3.41978516	     -7.58398173	    -14.87203370	      4.38617382	     -3.48163864	     -2.20222895	    -13.74636421	     -5.37022153	     17.19073777	     90.00000001	      0.00000000	      0.00000000	     -6.85993803	    -10.82300252	      0.31426437	     22.22943606	     90.00000001	      0.00000000	      0.00000000
